<?xml version="1.0" encoding="UTF-8" standalone="no"?>
<!DOCTYPE svg PUBLIC "-//W3C//DTD SVG 1.1//EN" "http://www.w3.org/Graphics/SVG/1.1/DTD/svg11.dtd">
<svg width="100%" height="100%" viewBox="0 0 640 159" version="1.1" xmlns="http://www.w3.org/2000/svg" xmlns:xlink="http://www.w3.org/1999/xlink" xml:space="preserve" xmlns:serif="http://www.serif.com/" style="fill-rule:evenodd;clip-rule:evenodd;stroke-miterlimit:10;">
    <g transform="matrix(1,0,0,1,-1362.5,-372.096)">
        <g id="Artboard-4" transform="matrix(0.532979,0,0,0.132187,1362.5,372.096)">
            <rect x="0" y="0" width="1200" height="1200" style="fill:none;"/>
            <clipPath id="_clip1">
                <rect x="0" y="0" width="1200" height="1200"/>
            </clipPath>
            <g clip-path="url(#_clip1)">
                <g transform="matrix(1.8258,0,0,7.56505,-749.934,-3861.02)">
                    <g transform="matrix(1,0,0,1,4.11052,4)">
                        <path d="M459.942,621.228L466.868,580.908L477.718,580.908C490.876,580.908 494.916,591.132 492.953,602.652C490.76,615.612 482.219,621.228 474.486,621.228L459.942,621.228ZM473.562,630.3C488.106,630.3 499.186,617.196 501.726,602.076C504.034,588.684 500.225,580.908 491.684,575.148C499.302,570.396 504.727,562.764 506.458,552.828C510.613,528.06 494.454,526.62 484.874,526.62L467.445,526.62L449.785,630.3L473.562,630.3ZM483.95,535.692C489.26,535.692 500.802,535.26 497.917,552.396C495.839,564.78 486.143,571.836 478.41,571.836L468.368,571.836L474.601,535.692L483.95,535.692Z" style="fill:rgb(210,76,90);fill-rule:nonzero;"/>
                    </g>
                    <g transform="matrix(0.862661,0,0,0.789101,65.7022,133.325)">
                        <path d="M553.089,582.636C549.511,580.62 545.471,578.892 540.854,578.892C528.388,578.892 518.924,591.852 516.384,606.684C514.076,620.364 518.693,631.884 530.466,631.884C536.93,631.884 542.124,628.716 547.318,622.524L547.895,632.172L556.206,630.876C555.513,624.252 555.975,617.052 557.129,609.996L562.785,576.588C564.978,563.772 559.899,551.676 548.126,551.676C541.662,551.676 535.776,554.124 529.427,557.004L529.774,566.508C535.198,563.916 540.854,560.748 546.279,560.748C552.743,560.748 555.859,566.796 554.359,575.292L553.089,582.636ZM548.588,609.564C543.855,615.756 538.661,622.812 531.967,622.812C525.272,622.812 523.656,614.46 524.926,607.26C526.542,597.468 531.62,587.964 540.393,587.964C544.548,587.964 548.241,589.692 551.589,591.708L548.588,609.564Z" style="fill:rgb(210,76,90);fill-rule:nonzero;"/>
                    </g>
                    <g transform="matrix(0.862661,0,0,0.789101,53.7544,133.325)">
                        <path d="M621.997,610.14C616.803,616.332 610.339,622.812 603.529,622.812C595.565,622.812 586.908,615.612 590.948,591.564C594.872,568.812 605.145,560.748 613.917,560.748C621.535,560.748 624.883,567.228 626.729,575.004L635.271,568.812C631.577,558.588 625.575,551.676 615.418,551.676C603.067,551.676 587.37,561.756 582.176,592.572C576.982,623.1 590.717,631.884 602.144,631.884C611.724,631.884 618.881,626.124 626.498,617.772L621.997,610.14Z" style="fill:rgb(210,76,90);fill-rule:nonzero;"/>
                    </g>
                    <g transform="matrix(0.862661,0,0,0.789101,44.6071,133.325)">
                        <path d="M688.943,553.26C680.17,565.644 669.898,576.444 659.971,586.956L670.821,523.452L662.164,523.452L643.927,630.3L652.584,630.3L657.778,599.772L662.511,594.876L680.748,630.3L692.174,630.3L668.974,588.54C679.709,577.452 684.21,571.548 699.908,553.26L688.943,553.26Z" style="fill:rgb(210,76,90);fill-rule:nonzero;"/>
                    </g>
                    <g transform="matrix(1,0,0,1,-51.3815,0)">
                        <path d="M706.372,630.3L715.028,630.3L722.3,587.388C726.571,587.244 730.726,587.244 734.881,587.1L747.693,630.3L758.197,630.3L743.538,584.652C756.465,576.444 761.429,566.652 763.275,555.996C764.314,549.948 766.392,526.62 745.616,526.62L724.031,526.62L706.372,630.3ZM723.916,578.172L731.188,535.692L739.729,535.692C753.349,535.692 757.042,541.596 754.734,555.42C752.079,570.684 743.884,578.172 732.111,578.172L723.916,578.172Z" style="fill:rgb(210,76,90);fill-rule:nonzero;"/>
                    </g>
                    <g transform="matrix(0.967275,0,0,0.789101,-34.3718,133.325)">
                        <path d="M789.938,631.884C801.827,631.884 816.255,621.66 821.333,591.852C823.411,579.324 825.373,551.676 803.558,551.676C791.785,551.676 777.357,562.044 772.278,591.852C766.969,622.956 779.204,631.884 789.938,631.884ZM791.439,622.812C777.934,622.812 778.627,605.1 780.935,591.852C783.128,578.604 788.553,560.748 802.058,560.748C815.562,560.748 814.87,578.604 812.677,591.852C810.368,605.1 804.943,622.812 791.439,622.812Z" style="fill:rgb(210,76,90);fill-rule:nonzero;"/>
                    </g>
                    <g transform="matrix(0.967275,0,0,0.789101,-42.5928,133.325)">
                        <path d="M849.612,523.452L836.223,601.788C834.607,611.58 832.414,621.372 828.374,630.444L836.338,631.74L839.686,623.1C843.841,628.86 846.149,631.884 853.306,631.884C864.155,631.884 879.853,621.372 885.047,591.132C890.01,561.756 876.506,551.676 866.579,551.676C861.501,551.676 857.576,553.116 852.729,555.996L858.269,523.452L849.612,523.452ZM850.882,566.94C854.922,563.484 859.423,560.748 863.694,560.748C872.928,560.748 879.968,570.108 876.275,591.564C872.004,616.764 860.346,622.812 854.691,622.812C847.65,622.812 845.111,616.332 843.61,609.276L850.882,566.94Z" style="fill:rgb(210,76,90);fill-rule:nonzero;"/>
                    </g>
                    <g transform="matrix(0.967275,0,0,0.789101,-50.8139,133.325)">
                        <path d="M933.987,582.636C930.409,580.62 926.369,578.892 921.752,578.892C909.286,578.892 899.821,591.852 897.282,606.684C894.974,620.364 899.59,631.884 911.364,631.884C917.827,631.884 923.021,628.716 928.215,622.524L928.793,632.172L937.103,630.876C936.411,624.252 936.872,617.052 938.026,609.996L943.682,576.588C945.875,563.772 940.797,551.676 929.023,551.676C922.56,551.676 916.673,554.124 910.325,557.004L910.671,566.508C916.096,563.916 921.752,560.748 927.177,560.748C933.64,560.748 936.757,566.796 935.256,575.292L933.987,582.636ZM929.485,609.564C924.753,615.756 919.559,622.812 912.864,622.812C906.17,622.812 904.554,614.46 905.823,607.26C907.439,597.468 912.518,587.964 921.29,587.964C925.445,587.964 929.139,589.692 932.486,591.708L929.485,609.564Z" style="fill:rgb(210,76,90);fill-rule:nonzero;"/>
                    </g>
                    <g transform="matrix(0.967275,0,0,0.789101,-64.1731,133.325)">
                        <path d="M1011.67,553.26L989.621,553.26L993.661,529.644L985.004,529.644L980.964,553.26L967.69,553.26L966.074,562.332L979.348,562.332L972.538,602.796C968.614,625.836 973.923,631.884 983.965,631.884C994.353,631.884 1002.89,622.956 1008.9,611.868L1001.05,609.276C997.47,616.044 992.276,622.812 985.696,622.812C977.848,622.812 979.233,613.74 980.502,606.252L988.005,562.332L1010.05,562.332L1011.67,553.26Z" style="fill:rgb(210,76,90);fill-rule:nonzero;"/>
                    </g>
                    <g transform="matrix(0.967275,0,0,0.789101,-78.5599,133.325)">
                        <path d="M1040.52,630.3L1049.18,630.3L1062.34,553.26L1036.14,553.26L1034.52,562.332L1052.07,562.332L1040.52,630.3ZM1062.57,524.604C1058.53,524.604 1054.6,528.492 1053.8,533.676C1052.87,538.86 1055.41,542.748 1059.45,542.748C1063.49,542.748 1067.42,538.86 1068.34,533.676C1069.15,528.492 1066.61,524.604 1062.57,524.604Z" style="fill:rgb(210,76,90);fill-rule:nonzero;"/>
                    </g>
                    <g transform="matrix(0.967275,0,0,0.789101,-97.0573,133.325)">
                        <path d="M1129.86,610.14C1124.67,616.332 1118.2,622.812 1111.39,622.812C1103.43,622.812 1094.77,615.612 1098.81,591.564C1102.74,568.812 1113.01,560.748 1121.78,560.748C1129.4,560.748 1132.75,567.228 1134.59,575.004L1143.13,568.812C1139.44,558.588 1133.44,551.676 1123.28,551.676C1110.93,551.676 1095.23,561.756 1090.04,592.572C1084.85,623.1 1098.58,631.884 1110.01,631.884C1119.59,631.884 1126.74,626.124 1134.36,617.772L1129.86,610.14Z" style="fill:rgb(210,76,90);fill-rule:nonzero;"/>
                    </g>
                    <g transform="matrix(0.967275,0,0,0.789101,-105.278,133.325)">
                        <path d="M1201.08,560.604C1195.88,555.132 1190.34,551.676 1182.61,551.676C1171.87,551.676 1162.06,560.748 1160.1,571.98C1157.79,585.804 1167.03,590.988 1175.11,595.164C1180.88,598.188 1186.88,600.924 1185.15,611.004C1183.88,618.78 1178.22,622.812 1172.45,622.812C1165.18,622.812 1158.37,616.332 1154.56,609.852L1148.33,618.492C1153.87,626.124 1162.18,631.884 1171.53,631.884C1181.11,631.884 1191.73,623.244 1193.92,610.572C1196.58,595.308 1187.23,590.268 1178.34,585.804C1173.95,583.644 1167.37,579.9 1168.64,572.412C1169.91,565.5 1175.57,560.748 1180.76,560.748C1187,560.748 1191.61,565.068 1195.77,569.388L1201.08,560.604Z" style="fill:rgb(210,76,90);fill-rule:nonzero;"/>
                    </g>
                </g>
                <g transform="matrix(2.30433,0,0,7.56505,-1189.64,-4093.01)">
                    <g transform="matrix(0.814227,-0,-0,1,516.265,541.042)">
                        <path d="M30.488,146.237L11.363,133.487L30.488,120.737L30.488,146.237Z" style="fill:none;stroke:rgb(210,76,90);stroke-width:8.5px;"/>
                        <path d="M625.08,133.487L30.488,133.487" style="fill:none;stroke:rgb(210,76,90);stroke-width:8.5px;stroke-linecap:square;stroke-linejoin:round;stroke-miterlimit:1.5;"/>
                    </g>
                </g>
            </g>
        </g>
    </g>
</svg>
